<mxfile host="app.diagrams.net" agent="Mozilla/5.0 (Windows NT 10.0; Win64; x64) AppleWebKit/537.36 (KHTML, like Gecko) Chrome/133.0.0.0 Safari/537.36" version="26.0.11">
  <diagram name="第 1 页" id="m-XW8F5VrLj2kAHKP3lN">
    <mxGraphModel dx="1434" dy="738" grid="1" gridSize="10" guides="1" tooltips="1" connect="1" arrows="1" fold="1" page="1" pageScale="1" pageWidth="2000" pageHeight="2000" math="0" shadow="0">
      <root>
        <mxCell id="0" />
        <mxCell id="1" parent="0" />
        <mxCell id="h1UAqoqoTCO8OhOf6-vA-1" value="&lt;font style=&quot;font-size: 17px;&quot;&gt;NMC104控制器&lt;/font&gt;" style="rounded=0;whiteSpace=wrap;html=1;" vertex="1" parent="1">
          <mxGeometry x="400" y="140" width="320" height="190" as="geometry" />
        </mxCell>
        <mxCell id="h1UAqoqoTCO8OhOf6-vA-2" value="&lt;font style=&quot;font-size: 16px;&quot;&gt;CAN1&lt;/font&gt;" style="rounded=0;whiteSpace=wrap;html=1;" vertex="1" parent="1">
          <mxGeometry x="400" y="330" width="160" height="190" as="geometry" />
        </mxCell>
        <mxCell id="h1UAqoqoTCO8OhOf6-vA-3" value="&lt;font style=&quot;font-size: 16px;&quot;&gt;CAN2&lt;/font&gt;" style="rounded=0;whiteSpace=wrap;html=1;" vertex="1" parent="1">
          <mxGeometry x="560" y="330" width="160" height="190" as="geometry" />
        </mxCell>
        <mxCell id="h1UAqoqoTCO8OhOf6-vA-4" value="&lt;font style=&quot;font-size: 16px;&quot;&gt;平板&lt;/font&gt;" style="rounded=1;whiteSpace=wrap;html=1;" vertex="1" parent="1">
          <mxGeometry x="130" y="330" width="90" height="190" as="geometry" />
        </mxCell>
        <mxCell id="h1UAqoqoTCO8OhOf6-vA-5" value="" style="endArrow=none;html=1;rounded=0;entryX=1;entryY=0.25;entryDx=0;entryDy=0;exitX=0;exitY=0.25;exitDx=0;exitDy=0;" edge="1" parent="1" source="h1UAqoqoTCO8OhOf6-vA-2" target="h1UAqoqoTCO8OhOf6-vA-4">
          <mxGeometry width="50" height="50" relative="1" as="geometry">
            <mxPoint x="500" y="490" as="sourcePoint" />
            <mxPoint x="550" y="440" as="targetPoint" />
          </mxGeometry>
        </mxCell>
        <mxCell id="h1UAqoqoTCO8OhOf6-vA-7" value="CAN1-H" style="edgeLabel;html=1;align=center;verticalAlign=middle;resizable=0;points=[];" vertex="1" connectable="0" parent="h1UAqoqoTCO8OhOf6-vA-5">
          <mxGeometry x="0.2222" y="-1" relative="1" as="geometry">
            <mxPoint x="-40" as="offset" />
          </mxGeometry>
        </mxCell>
        <mxCell id="h1UAqoqoTCO8OhOf6-vA-6" value="" style="endArrow=none;html=1;rounded=0;entryX=0;entryY=0.789;entryDx=0;entryDy=0;entryPerimeter=0;" edge="1" parent="1" target="h1UAqoqoTCO8OhOf6-vA-2">
          <mxGeometry width="50" height="50" relative="1" as="geometry">
            <mxPoint x="220" y="480" as="sourcePoint" />
            <mxPoint x="270" y="430" as="targetPoint" />
          </mxGeometry>
        </mxCell>
        <mxCell id="h1UAqoqoTCO8OhOf6-vA-8" value="CAN1-L" style="edgeLabel;html=1;align=center;verticalAlign=middle;resizable=0;points=[];" vertex="1" connectable="0" parent="h1UAqoqoTCO8OhOf6-vA-6">
          <mxGeometry x="-0.213" y="2" relative="1" as="geometry">
            <mxPoint x="-41" as="offset" />
          </mxGeometry>
        </mxCell>
        <mxCell id="h1UAqoqoTCO8OhOf6-vA-9" value="" style="endArrow=none;html=1;rounded=0;" edge="1" parent="1">
          <mxGeometry width="50" height="50" relative="1" as="geometry">
            <mxPoint x="290" y="480" as="sourcePoint" />
            <mxPoint x="290" y="190" as="targetPoint" />
          </mxGeometry>
        </mxCell>
        <mxCell id="h1UAqoqoTCO8OhOf6-vA-10" value="" style="endArrow=none;html=1;rounded=0;" edge="1" parent="1">
          <mxGeometry width="50" height="50" relative="1" as="geometry">
            <mxPoint x="360" y="378" as="sourcePoint" />
            <mxPoint x="360" y="170" as="targetPoint" />
          </mxGeometry>
        </mxCell>
        <mxCell id="h1UAqoqoTCO8OhOf6-vA-11" value="&lt;font style=&quot;font-size: 16px;&quot;&gt;SR73&lt;/font&gt;" style="rounded=1;whiteSpace=wrap;html=1;" vertex="1" parent="1">
          <mxGeometry x="130" y="240" width="90" height="60" as="geometry" />
        </mxCell>
        <mxCell id="h1UAqoqoTCO8OhOf6-vA-12" value="&lt;font style=&quot;font-size: 16px;&quot;&gt;威卡CAN&lt;/font&gt;" style="rounded=1;whiteSpace=wrap;html=1;" vertex="1" parent="1">
          <mxGeometry x="130" y="150" width="90" height="60" as="geometry" />
        </mxCell>
        <mxCell id="h1UAqoqoTCO8OhOf6-vA-14" value="" style="endArrow=none;html=1;rounded=0;exitX=1.02;exitY=0.338;exitDx=0;exitDy=0;exitPerimeter=0;" edge="1" parent="1">
          <mxGeometry width="50" height="50" relative="1" as="geometry">
            <mxPoint x="220" y="170.27999999999997" as="sourcePoint" />
            <mxPoint x="360" y="170" as="targetPoint" />
          </mxGeometry>
        </mxCell>
        <mxCell id="h1UAqoqoTCO8OhOf6-vA-15" value="" style="endArrow=none;html=1;rounded=0;" edge="1" parent="1">
          <mxGeometry width="50" height="50" relative="1" as="geometry">
            <mxPoint x="220" y="190" as="sourcePoint" />
            <mxPoint x="290" y="190" as="targetPoint" />
          </mxGeometry>
        </mxCell>
        <mxCell id="h1UAqoqoTCO8OhOf6-vA-16" value="" style="endArrow=none;html=1;rounded=0;" edge="1" parent="1">
          <mxGeometry width="50" height="50" relative="1" as="geometry">
            <mxPoint x="220" y="260" as="sourcePoint" />
            <mxPoint x="360" y="260" as="targetPoint" />
          </mxGeometry>
        </mxCell>
        <mxCell id="h1UAqoqoTCO8OhOf6-vA-17" value="" style="endArrow=none;html=1;rounded=0;" edge="1" parent="1">
          <mxGeometry width="50" height="50" relative="1" as="geometry">
            <mxPoint x="220" y="290" as="sourcePoint" />
            <mxPoint x="290" y="290" as="targetPoint" />
          </mxGeometry>
        </mxCell>
        <mxCell id="h1UAqoqoTCO8OhOf6-vA-18" value="" style="endArrow=none;html=1;rounded=0;entryX=1;entryY=0.25;entryDx=0;entryDy=0;exitX=0;exitY=0.25;exitDx=0;exitDy=0;" edge="1" parent="1">
          <mxGeometry width="50" height="50" relative="1" as="geometry">
            <mxPoint x="900" y="378" as="sourcePoint" />
            <mxPoint x="720" y="378" as="targetPoint" />
          </mxGeometry>
        </mxCell>
        <mxCell id="h1UAqoqoTCO8OhOf6-vA-19" value="CAN2-H" style="edgeLabel;html=1;align=center;verticalAlign=middle;resizable=0;points=[];" vertex="1" connectable="0" parent="h1UAqoqoTCO8OhOf6-vA-18">
          <mxGeometry x="0.2222" y="-1" relative="1" as="geometry">
            <mxPoint x="-40" as="offset" />
          </mxGeometry>
        </mxCell>
        <mxCell id="h1UAqoqoTCO8OhOf6-vA-20" value="" style="endArrow=none;html=1;rounded=0;entryX=0;entryY=0.789;entryDx=0;entryDy=0;entryPerimeter=0;" edge="1" parent="1">
          <mxGeometry width="50" height="50" relative="1" as="geometry">
            <mxPoint x="720" y="480" as="sourcePoint" />
            <mxPoint x="900" y="480" as="targetPoint" />
          </mxGeometry>
        </mxCell>
        <mxCell id="h1UAqoqoTCO8OhOf6-vA-21" value="CAN2-L" style="edgeLabel;html=1;align=center;verticalAlign=middle;resizable=0;points=[];" vertex="1" connectable="0" parent="h1UAqoqoTCO8OhOf6-vA-20">
          <mxGeometry x="-0.213" y="2" relative="1" as="geometry">
            <mxPoint x="-41" as="offset" />
          </mxGeometry>
        </mxCell>
        <mxCell id="h1UAqoqoTCO8OhOf6-vA-22" value="&lt;font style=&quot;font-size: 16px;&quot;&gt;玉柴VCU&lt;/font&gt;" style="rounded=1;whiteSpace=wrap;html=1;" vertex="1" parent="1">
          <mxGeometry x="840" y="330" width="90" height="190" as="geometry" />
        </mxCell>
      </root>
    </mxGraphModel>
  </diagram>
</mxfile>
